<svg width="130" height="129" viewBox="0 0 130 129" fill="none" xmlns="http://www.w3.org/2000/svg">
<path d="M63 0C13 4 0.166667 46.3333 0 67C6 119 44.5 129.667 63 128.5C115.4 128.1 129.167 85.6667 129.5 64.5C126.3 12.9 83.8333 0 63 0Z" fill="#65788C"/>
<path d="M71.5 128.5L26.5 98.5C42.5 104.5 52.5 93 55.5 86.5L76 28L128.5 66.5C126.9 111.3 89.8333 126.5 71.5 128.5Z" fill="#323c46"/>
<path d="M79 36.5L68.5 67.5L74 83C82 105 96 102.5 104 99.5L79 36.5Z" fill="#0096ff"/>
<path d="M26 98C39.2 104 50 98 55.5 86.5L64.3136 60.5L75.5 27.5H51.5L26 98Z" fill="#ff823c"/>
</svg>
